<mxfile host="app.diagrams.net" modified="2024-02-22T20:52:17.626Z" agent="Mozilla/5.0 (Windows NT 10.0; Win64; x64) AppleWebKit/537.36 (KHTML, like Gecko) Chrome/121.0.0.0 Safari/537.36" etag="h2tt2pCPcwwfeXi-m-7d" version="23.1.5" type="github">
  <diagram id="R2lEEEUBdFMjLlhIrx00" name="Page-1">
    <mxGraphModel dx="2042" dy="2573" grid="1" gridSize="10" guides="1" tooltips="1" connect="1" arrows="1" fold="1" page="1" pageScale="1" pageWidth="850" pageHeight="1100" math="0" shadow="0" extFonts="Permanent Marker^https://fonts.googleapis.com/css?family=Permanent+Marker">
      <root>
        <mxCell id="0" />
        <mxCell id="1" parent="0" />
        <mxCell id="C-vyLk0tnHw3VtMMgP7b-23" value="Users" style="shape=table;startSize=40;container=1;collapsible=1;childLayout=tableLayout;fixedRows=1;rowLines=0;fontStyle=1;align=center;resizeLast=1;swimlaneFillColor=default;fontSize=16;" parent="1" vertex="1">
          <mxGeometry x="-830" y="220" width="625" height="170" as="geometry" />
        </mxCell>
        <mxCell id="C-vyLk0tnHw3VtMMgP7b-24" value="" style="shape=partialRectangle;collapsible=0;dropTarget=0;pointerEvents=0;fillColor=none;points=[[0,0.5],[1,0.5]];portConstraint=eastwest;top=0;left=0;right=0;bottom=1;fontSize=16;" parent="C-vyLk0tnHw3VtMMgP7b-23" vertex="1">
          <mxGeometry y="40" width="625" height="30" as="geometry" />
        </mxCell>
        <mxCell id="C-vyLk0tnHw3VtMMgP7b-25" value="PK" style="shape=partialRectangle;overflow=hidden;connectable=0;fillColor=none;top=0;left=0;bottom=0;right=0;fontStyle=1;fontSize=16;" parent="C-vyLk0tnHw3VtMMgP7b-24" vertex="1">
          <mxGeometry width="30" height="30" as="geometry">
            <mxRectangle width="30" height="30" as="alternateBounds" />
          </mxGeometry>
        </mxCell>
        <mxCell id="C-vyLk0tnHw3VtMMgP7b-26" value="id SERIAL NOT NULL" style="shape=partialRectangle;overflow=hidden;connectable=0;fillColor=none;top=0;left=0;bottom=0;right=0;align=left;spacingLeft=6;fontStyle=5;fontSize=16;" parent="C-vyLk0tnHw3VtMMgP7b-24" vertex="1">
          <mxGeometry x="30" width="595" height="30" as="geometry">
            <mxRectangle width="595" height="30" as="alternateBounds" />
          </mxGeometry>
        </mxCell>
        <mxCell id="C-vyLk0tnHw3VtMMgP7b-27" value="" style="shape=partialRectangle;collapsible=0;dropTarget=0;pointerEvents=0;fillColor=none;points=[[0,0.5],[1,0.5]];portConstraint=eastwest;top=0;left=0;right=0;bottom=0;fontSize=16;" parent="C-vyLk0tnHw3VtMMgP7b-23" vertex="1">
          <mxGeometry y="70" width="625" height="40" as="geometry" />
        </mxCell>
        <mxCell id="C-vyLk0tnHw3VtMMgP7b-28" value="" style="shape=partialRectangle;overflow=hidden;connectable=0;fillColor=none;top=0;left=0;bottom=0;right=0;fontSize=16;" parent="C-vyLk0tnHw3VtMMgP7b-27" vertex="1">
          <mxGeometry width="30" height="40" as="geometry">
            <mxRectangle width="30" height="40" as="alternateBounds" />
          </mxGeometry>
        </mxCell>
        <mxCell id="C-vyLk0tnHw3VtMMgP7b-29" value="display_name VARCHAR(40) UNIQUE NOT NULL" style="shape=partialRectangle;overflow=hidden;connectable=0;fillColor=none;top=0;left=0;bottom=0;right=0;align=left;spacingLeft=6;fontSize=16;" parent="C-vyLk0tnHw3VtMMgP7b-27" vertex="1">
          <mxGeometry x="30" width="595" height="40" as="geometry">
            <mxRectangle width="595" height="40" as="alternateBounds" />
          </mxGeometry>
        </mxCell>
        <mxCell id="ru2FF_7ZRZzsMQQVSqr4-4" value="" style="shape=tableRow;horizontal=0;startSize=0;swimlaneHead=0;swimlaneBody=0;fillColor=none;collapsible=0;dropTarget=0;points=[[0,0.5],[1,0.5]];portConstraint=eastwest;top=0;left=0;right=0;bottom=0;fontSize=16;" vertex="1" parent="C-vyLk0tnHw3VtMMgP7b-23">
          <mxGeometry y="110" width="625" height="30" as="geometry" />
        </mxCell>
        <mxCell id="ru2FF_7ZRZzsMQQVSqr4-5" value="" style="shape=partialRectangle;connectable=0;fillColor=none;top=0;left=0;bottom=0;right=0;editable=1;overflow=hidden;fontSize=16;" vertex="1" parent="ru2FF_7ZRZzsMQQVSqr4-4">
          <mxGeometry width="30" height="30" as="geometry">
            <mxRectangle width="30" height="30" as="alternateBounds" />
          </mxGeometry>
        </mxCell>
        <mxCell id="ru2FF_7ZRZzsMQQVSqr4-6" value="display_Image TEXT NOT NULL" style="shape=partialRectangle;connectable=0;fillColor=none;top=0;left=0;bottom=0;right=0;align=left;spacingLeft=6;overflow=hidden;fontSize=16;" vertex="1" parent="ru2FF_7ZRZzsMQQVSqr4-4">
          <mxGeometry x="30" width="595" height="30" as="geometry">
            <mxRectangle width="595" height="30" as="alternateBounds" />
          </mxGeometry>
        </mxCell>
        <mxCell id="ru2FF_7ZRZzsMQQVSqr4-8" value="" style="shape=tableRow;horizontal=0;startSize=0;swimlaneHead=0;swimlaneBody=0;fillColor=none;collapsible=0;dropTarget=0;points=[[0,0.5],[1,0.5]];portConstraint=eastwest;top=0;left=0;right=0;bottom=0;fontSize=16;" vertex="1" parent="C-vyLk0tnHw3VtMMgP7b-23">
          <mxGeometry y="140" width="625" height="30" as="geometry" />
        </mxCell>
        <mxCell id="ru2FF_7ZRZzsMQQVSqr4-9" value="" style="shape=partialRectangle;connectable=0;fillColor=none;top=0;left=0;bottom=0;right=0;editable=1;overflow=hidden;fontSize=16;" vertex="1" parent="ru2FF_7ZRZzsMQQVSqr4-8">
          <mxGeometry width="30" height="30" as="geometry">
            <mxRectangle width="30" height="30" as="alternateBounds" />
          </mxGeometry>
        </mxCell>
        <mxCell id="ru2FF_7ZRZzsMQQVSqr4-10" value="created_at TIMESTAMPTZ NOT NULL DEFAULT CURRENT_TIMESTAMP" style="shape=partialRectangle;connectable=0;fillColor=none;top=0;left=0;bottom=0;right=0;align=left;spacingLeft=6;overflow=hidden;fontSize=16;" vertex="1" parent="ru2FF_7ZRZzsMQQVSqr4-8">
          <mxGeometry x="30" width="595" height="30" as="geometry">
            <mxRectangle width="595" height="30" as="alternateBounds" />
          </mxGeometry>
        </mxCell>
        <mxCell id="ru2FF_7ZRZzsMQQVSqr4-15" value="" style="edgeStyle=entityRelationEdgeStyle;fontSize=16;html=1;endArrow=ERzeroToOne;endFill=1;rounded=0;entryX=0;entryY=0.5;entryDx=0;entryDy=0;exitX=1;exitY=0.5;exitDx=0;exitDy=0;" edge="1" parent="1" source="C-vyLk0tnHw3VtMMgP7b-24" target="ru2FF_7ZRZzsMQQVSqr4-18">
          <mxGeometry width="100" height="100" relative="1" as="geometry">
            <mxPoint x="-75" y="320" as="sourcePoint" />
            <mxPoint x="-530" y="410" as="targetPoint" />
            <Array as="points">
              <mxPoint x="-260" y="340" />
              <mxPoint x="-280" y="370" />
              <mxPoint x="-260" y="390" />
              <mxPoint x="-260" y="380" />
              <mxPoint x="-172" y="470" />
              <mxPoint x="-220" y="370" />
              <mxPoint x="-260" y="330" />
            </Array>
          </mxGeometry>
        </mxCell>
        <mxCell id="ru2FF_7ZRZzsMQQVSqr4-17" value="users_metadata" style="shape=table;startSize=30;container=1;collapsible=1;childLayout=tableLayout;fixedRows=1;rowLines=0;fontStyle=1;align=center;resizeLast=1;html=1;fontSize=16;" vertex="1" parent="1">
          <mxGeometry x="70" y="40" width="660" height="370" as="geometry" />
        </mxCell>
        <mxCell id="ru2FF_7ZRZzsMQQVSqr4-18" value="" style="shape=tableRow;horizontal=0;startSize=0;swimlaneHead=0;swimlaneBody=0;fillColor=none;collapsible=0;dropTarget=0;points=[[0,0.5],[1,0.5]];portConstraint=eastwest;top=0;left=0;right=0;bottom=1;fontSize=16;" vertex="1" parent="ru2FF_7ZRZzsMQQVSqr4-17">
          <mxGeometry y="30" width="660" height="40" as="geometry" />
        </mxCell>
        <mxCell id="ru2FF_7ZRZzsMQQVSqr4-19" value="PK, FK" style="shape=partialRectangle;connectable=0;fillColor=none;top=0;left=0;bottom=0;right=0;fontStyle=1;overflow=hidden;whiteSpace=wrap;html=1;fontSize=16;" vertex="1" parent="ru2FF_7ZRZzsMQQVSqr4-18">
          <mxGeometry width="80" height="40" as="geometry">
            <mxRectangle width="80" height="40" as="alternateBounds" />
          </mxGeometry>
        </mxCell>
        <mxCell id="ru2FF_7ZRZzsMQQVSqr4-20" value="id INTEGER PRIMARY KEY" style="shape=partialRectangle;connectable=0;fillColor=none;top=0;left=0;bottom=0;right=0;align=left;spacingLeft=6;fontStyle=5;overflow=hidden;whiteSpace=wrap;html=1;fontSize=16;" vertex="1" parent="ru2FF_7ZRZzsMQQVSqr4-18">
          <mxGeometry x="80" width="580" height="40" as="geometry">
            <mxRectangle width="580" height="40" as="alternateBounds" />
          </mxGeometry>
        </mxCell>
        <mxCell id="ru2FF_7ZRZzsMQQVSqr4-21" value="" style="shape=tableRow;horizontal=0;startSize=0;swimlaneHead=0;swimlaneBody=0;fillColor=none;collapsible=0;dropTarget=0;points=[[0,0.5],[1,0.5]];portConstraint=eastwest;top=0;left=0;right=0;bottom=0;fontSize=16;" vertex="1" parent="ru2FF_7ZRZzsMQQVSqr4-17">
          <mxGeometry y="70" width="660" height="50" as="geometry" />
        </mxCell>
        <mxCell id="ru2FF_7ZRZzsMQQVSqr4-22" value="" style="shape=partialRectangle;connectable=0;fillColor=none;top=0;left=0;bottom=0;right=0;editable=1;overflow=hidden;whiteSpace=wrap;html=1;fontSize=16;" vertex="1" parent="ru2FF_7ZRZzsMQQVSqr4-21">
          <mxGeometry width="80" height="50" as="geometry">
            <mxRectangle width="80" height="50" as="alternateBounds" />
          </mxGeometry>
        </mxCell>
        <mxCell id="ru2FF_7ZRZzsMQQVSqr4-23" value="occupation Occupation NOT NULL" style="shape=partialRectangle;connectable=0;fillColor=none;top=0;left=0;bottom=0;right=0;align=left;spacingLeft=6;overflow=hidden;whiteSpace=wrap;html=1;fontSize=16;" vertex="1" parent="ru2FF_7ZRZzsMQQVSqr4-21">
          <mxGeometry x="80" width="580" height="50" as="geometry">
            <mxRectangle width="580" height="50" as="alternateBounds" />
          </mxGeometry>
        </mxCell>
        <mxCell id="ru2FF_7ZRZzsMQQVSqr4-24" value="" style="shape=tableRow;horizontal=0;startSize=0;swimlaneHead=0;swimlaneBody=0;fillColor=none;collapsible=0;dropTarget=0;points=[[0,0.5],[1,0.5]];portConstraint=eastwest;top=0;left=0;right=0;bottom=0;fontSize=16;" vertex="1" parent="ru2FF_7ZRZzsMQQVSqr4-17">
          <mxGeometry y="120" width="660" height="50" as="geometry" />
        </mxCell>
        <mxCell id="ru2FF_7ZRZzsMQQVSqr4-25" value="" style="shape=partialRectangle;connectable=0;fillColor=none;top=0;left=0;bottom=0;right=0;editable=1;overflow=hidden;whiteSpace=wrap;html=1;fontSize=16;" vertex="1" parent="ru2FF_7ZRZzsMQQVSqr4-24">
          <mxGeometry width="80" height="50" as="geometry">
            <mxRectangle width="80" height="50" as="alternateBounds" />
          </mxGeometry>
        </mxCell>
        <mxCell id="ru2FF_7ZRZzsMQQVSqr4-26" value="gender Gender NOT NULL" style="shape=partialRectangle;connectable=0;fillColor=none;top=0;left=0;bottom=0;right=0;align=left;spacingLeft=6;overflow=hidden;whiteSpace=wrap;html=1;fontSize=16;" vertex="1" parent="ru2FF_7ZRZzsMQQVSqr4-24">
          <mxGeometry x="80" width="580" height="50" as="geometry">
            <mxRectangle width="580" height="50" as="alternateBounds" />
          </mxGeometry>
        </mxCell>
        <mxCell id="ru2FF_7ZRZzsMQQVSqr4-27" value="" style="shape=tableRow;horizontal=0;startSize=0;swimlaneHead=0;swimlaneBody=0;fillColor=none;collapsible=0;dropTarget=0;points=[[0,0.5],[1,0.5]];portConstraint=eastwest;top=0;left=0;right=0;bottom=0;fontSize=16;" vertex="1" parent="ru2FF_7ZRZzsMQQVSqr4-17">
          <mxGeometry y="170" width="660" height="50" as="geometry" />
        </mxCell>
        <mxCell id="ru2FF_7ZRZzsMQQVSqr4-28" value="" style="shape=partialRectangle;connectable=0;fillColor=none;top=0;left=0;bottom=0;right=0;editable=1;overflow=hidden;whiteSpace=wrap;html=1;fontSize=16;" vertex="1" parent="ru2FF_7ZRZzsMQQVSqr4-27">
          <mxGeometry width="80" height="50" as="geometry">
            <mxRectangle width="80" height="50" as="alternateBounds" />
          </mxGeometry>
        </mxCell>
        <mxCell id="ru2FF_7ZRZzsMQQVSqr4-29" value="biography VARCHAR(255)" style="shape=partialRectangle;connectable=0;fillColor=none;top=0;left=0;bottom=0;right=0;align=left;spacingLeft=6;overflow=hidden;whiteSpace=wrap;html=1;fontSize=16;" vertex="1" parent="ru2FF_7ZRZzsMQQVSqr4-27">
          <mxGeometry x="80" width="580" height="50" as="geometry">
            <mxRectangle width="580" height="50" as="alternateBounds" />
          </mxGeometry>
        </mxCell>
        <mxCell id="ru2FF_7ZRZzsMQQVSqr4-36" value="" style="shape=tableRow;horizontal=0;startSize=0;swimlaneHead=0;swimlaneBody=0;fillColor=none;collapsible=0;dropTarget=0;points=[[0,0.5],[1,0.5]];portConstraint=eastwest;top=0;left=0;right=0;bottom=0;" vertex="1" parent="ru2FF_7ZRZzsMQQVSqr4-17">
          <mxGeometry y="220" width="660" height="50" as="geometry" />
        </mxCell>
        <mxCell id="ru2FF_7ZRZzsMQQVSqr4-37" value="" style="shape=partialRectangle;connectable=0;fillColor=none;top=0;left=0;bottom=0;right=0;editable=1;overflow=hidden;" vertex="1" parent="ru2FF_7ZRZzsMQQVSqr4-36">
          <mxGeometry width="80" height="50" as="geometry">
            <mxRectangle width="80" height="50" as="alternateBounds" />
          </mxGeometry>
        </mxCell>
        <mxCell id="ru2FF_7ZRZzsMQQVSqr4-38" value="is_private BOOLEAN NOT NULL" style="shape=partialRectangle;connectable=0;fillColor=none;top=0;left=0;bottom=0;right=0;align=left;spacingLeft=6;overflow=hidden;fontSize=16;" vertex="1" parent="ru2FF_7ZRZzsMQQVSqr4-36">
          <mxGeometry x="80" width="580" height="50" as="geometry">
            <mxRectangle width="580" height="50" as="alternateBounds" />
          </mxGeometry>
        </mxCell>
        <mxCell id="ru2FF_7ZRZzsMQQVSqr4-41" value="" style="shape=tableRow;horizontal=0;startSize=0;swimlaneHead=0;swimlaneBody=0;fillColor=none;collapsible=0;dropTarget=0;points=[[0,0.5],[1,0.5]];portConstraint=eastwest;top=0;left=0;right=0;bottom=0;" vertex="1" parent="ru2FF_7ZRZzsMQQVSqr4-17">
          <mxGeometry y="270" width="660" height="50" as="geometry" />
        </mxCell>
        <mxCell id="ru2FF_7ZRZzsMQQVSqr4-42" value="" style="shape=partialRectangle;connectable=0;fillColor=none;top=0;left=0;bottom=0;right=0;editable=1;overflow=hidden;" vertex="1" parent="ru2FF_7ZRZzsMQQVSqr4-41">
          <mxGeometry width="80" height="50" as="geometry">
            <mxRectangle width="80" height="50" as="alternateBounds" />
          </mxGeometry>
        </mxCell>
        <mxCell id="ru2FF_7ZRZzsMQQVSqr4-43" value="last_login_date TIMESTAMPTZ NOT NULL DEFEAULT CURRENT_TIMESTAMP" style="shape=partialRectangle;connectable=0;fillColor=none;top=0;left=0;bottom=0;right=0;align=left;spacingLeft=6;overflow=hidden;fontSize=16;" vertex="1" parent="ru2FF_7ZRZzsMQQVSqr4-41">
          <mxGeometry x="80" width="580" height="50" as="geometry">
            <mxRectangle width="580" height="50" as="alternateBounds" />
          </mxGeometry>
        </mxCell>
        <mxCell id="ru2FF_7ZRZzsMQQVSqr4-44" value="" style="shape=tableRow;horizontal=0;startSize=0;swimlaneHead=0;swimlaneBody=0;fillColor=none;collapsible=0;dropTarget=0;points=[[0,0.5],[1,0.5]];portConstraint=eastwest;top=0;left=0;right=0;bottom=0;fontSize=16;" vertex="1" parent="ru2FF_7ZRZzsMQQVSqr4-17">
          <mxGeometry y="320" width="660" height="50" as="geometry" />
        </mxCell>
        <mxCell id="ru2FF_7ZRZzsMQQVSqr4-45" value="" style="shape=partialRectangle;connectable=0;fillColor=none;top=0;left=0;bottom=0;right=0;editable=1;overflow=hidden;" vertex="1" parent="ru2FF_7ZRZzsMQQVSqr4-44">
          <mxGeometry width="80" height="50" as="geometry">
            <mxRectangle width="80" height="50" as="alternateBounds" />
          </mxGeometry>
        </mxCell>
        <mxCell id="ru2FF_7ZRZzsMQQVSqr4-46" value="account_status  AccountStatus NOT NULL DEFAULT &#39;active&#39;" style="shape=partialRectangle;connectable=0;fillColor=none;top=0;left=0;bottom=0;right=0;align=left;spacingLeft=6;overflow=hidden;fontSize=16;" vertex="1" parent="ru2FF_7ZRZzsMQQVSqr4-44">
          <mxGeometry x="80" width="580" height="50" as="geometry">
            <mxRectangle width="580" height="50" as="alternateBounds" />
          </mxGeometry>
        </mxCell>
        <mxCell id="ru2FF_7ZRZzsMQQVSqr4-48" value="users_socials" style="shape=table;startSize=30;container=1;collapsible=1;childLayout=tableLayout;fixedRows=1;rowLines=0;fontStyle=1;align=center;resizeLast=1;html=1;fontSize=16;" vertex="1" parent="1">
          <mxGeometry x="70" y="-360" width="340" height="360" as="geometry" />
        </mxCell>
        <mxCell id="ru2FF_7ZRZzsMQQVSqr4-49" value="" style="shape=tableRow;horizontal=0;startSize=0;swimlaneHead=0;swimlaneBody=0;fillColor=none;collapsible=0;dropTarget=0;points=[[0,0.5],[1,0.5]];portConstraint=eastwest;top=0;left=0;right=0;bottom=1;fontSize=16;" vertex="1" parent="ru2FF_7ZRZzsMQQVSqr4-48">
          <mxGeometry y="30" width="340" height="30" as="geometry" />
        </mxCell>
        <mxCell id="ru2FF_7ZRZzsMQQVSqr4-50" value="PK, FK" style="shape=partialRectangle;connectable=0;fillColor=none;top=0;left=0;bottom=0;right=0;fontStyle=1;overflow=hidden;whiteSpace=wrap;html=1;fontSize=16;" vertex="1" parent="ru2FF_7ZRZzsMQQVSqr4-49">
          <mxGeometry width="60" height="30" as="geometry">
            <mxRectangle width="60" height="30" as="alternateBounds" />
          </mxGeometry>
        </mxCell>
        <mxCell id="ru2FF_7ZRZzsMQQVSqr4-51" value="id INTEGER NOT NULL" style="shape=partialRectangle;connectable=0;fillColor=none;top=0;left=0;bottom=0;right=0;align=left;spacingLeft=6;fontStyle=5;overflow=hidden;whiteSpace=wrap;html=1;fontSize=16;" vertex="1" parent="ru2FF_7ZRZzsMQQVSqr4-49">
          <mxGeometry x="60" width="280" height="30" as="geometry">
            <mxRectangle width="280" height="30" as="alternateBounds" />
          </mxGeometry>
        </mxCell>
        <mxCell id="ru2FF_7ZRZzsMQQVSqr4-52" value="" style="shape=tableRow;horizontal=0;startSize=0;swimlaneHead=0;swimlaneBody=0;fillColor=none;collapsible=0;dropTarget=0;points=[[0,0.5],[1,0.5]];portConstraint=eastwest;top=0;left=0;right=0;bottom=0;fontSize=16;" vertex="1" parent="ru2FF_7ZRZzsMQQVSqr4-48">
          <mxGeometry y="60" width="340" height="40" as="geometry" />
        </mxCell>
        <mxCell id="ru2FF_7ZRZzsMQQVSqr4-53" value="" style="shape=partialRectangle;connectable=0;fillColor=none;top=0;left=0;bottom=0;right=0;editable=1;overflow=hidden;whiteSpace=wrap;html=1;fontSize=16;" vertex="1" parent="ru2FF_7ZRZzsMQQVSqr4-52">
          <mxGeometry width="60" height="40" as="geometry">
            <mxRectangle width="60" height="40" as="alternateBounds" />
          </mxGeometry>
        </mxCell>
        <mxCell id="ru2FF_7ZRZzsMQQVSqr4-54" value="twitter TEXT UNIQUE" style="shape=partialRectangle;connectable=0;fillColor=none;top=0;left=0;bottom=0;right=0;align=left;spacingLeft=6;overflow=hidden;whiteSpace=wrap;html=1;fontSize=16;" vertex="1" parent="ru2FF_7ZRZzsMQQVSqr4-52">
          <mxGeometry x="60" width="280" height="40" as="geometry">
            <mxRectangle width="280" height="40" as="alternateBounds" />
          </mxGeometry>
        </mxCell>
        <mxCell id="ru2FF_7ZRZzsMQQVSqr4-55" value="" style="shape=tableRow;horizontal=0;startSize=0;swimlaneHead=0;swimlaneBody=0;fillColor=none;collapsible=0;dropTarget=0;points=[[0,0.5],[1,0.5]];portConstraint=eastwest;top=0;left=0;right=0;bottom=0;fontSize=16;" vertex="1" parent="ru2FF_7ZRZzsMQQVSqr4-48">
          <mxGeometry y="100" width="340" height="40" as="geometry" />
        </mxCell>
        <mxCell id="ru2FF_7ZRZzsMQQVSqr4-56" value="" style="shape=partialRectangle;connectable=0;fillColor=none;top=0;left=0;bottom=0;right=0;editable=1;overflow=hidden;whiteSpace=wrap;html=1;fontSize=16;" vertex="1" parent="ru2FF_7ZRZzsMQQVSqr4-55">
          <mxGeometry width="60" height="40" as="geometry">
            <mxRectangle width="60" height="40" as="alternateBounds" />
          </mxGeometry>
        </mxCell>
        <mxCell id="ru2FF_7ZRZzsMQQVSqr4-57" value="facebook TEXT UNIQUE" style="shape=partialRectangle;connectable=0;fillColor=none;top=0;left=0;bottom=0;right=0;align=left;spacingLeft=6;overflow=hidden;whiteSpace=wrap;html=1;fontSize=16;" vertex="1" parent="ru2FF_7ZRZzsMQQVSqr4-55">
          <mxGeometry x="60" width="280" height="40" as="geometry">
            <mxRectangle width="280" height="40" as="alternateBounds" />
          </mxGeometry>
        </mxCell>
        <mxCell id="ru2FF_7ZRZzsMQQVSqr4-58" value="" style="shape=tableRow;horizontal=0;startSize=0;swimlaneHead=0;swimlaneBody=0;fillColor=none;collapsible=0;dropTarget=0;points=[[0,0.5],[1,0.5]];portConstraint=eastwest;top=0;left=0;right=0;bottom=0;fontSize=16;" vertex="1" parent="ru2FF_7ZRZzsMQQVSqr4-48">
          <mxGeometry y="140" width="340" height="50" as="geometry" />
        </mxCell>
        <mxCell id="ru2FF_7ZRZzsMQQVSqr4-59" value="" style="shape=partialRectangle;connectable=0;fillColor=none;top=0;left=0;bottom=0;right=0;editable=1;overflow=hidden;whiteSpace=wrap;html=1;fontSize=16;" vertex="1" parent="ru2FF_7ZRZzsMQQVSqr4-58">
          <mxGeometry width="60" height="50" as="geometry">
            <mxRectangle width="60" height="50" as="alternateBounds" />
          </mxGeometry>
        </mxCell>
        <mxCell id="ru2FF_7ZRZzsMQQVSqr4-60" value="instagram TEXT UNIQUE" style="shape=partialRectangle;connectable=0;fillColor=none;top=0;left=0;bottom=0;right=0;align=left;spacingLeft=6;overflow=hidden;whiteSpace=wrap;html=1;fontSize=16;" vertex="1" parent="ru2FF_7ZRZzsMQQVSqr4-58">
          <mxGeometry x="60" width="280" height="50" as="geometry">
            <mxRectangle width="280" height="50" as="alternateBounds" />
          </mxGeometry>
        </mxCell>
        <mxCell id="ru2FF_7ZRZzsMQQVSqr4-61" value="" style="shape=tableRow;horizontal=0;startSize=0;swimlaneHead=0;swimlaneBody=0;fillColor=none;collapsible=0;dropTarget=0;points=[[0,0.5],[1,0.5]];portConstraint=eastwest;top=0;left=0;right=0;bottom=0;fontSize=16;" vertex="1" parent="ru2FF_7ZRZzsMQQVSqr4-48">
          <mxGeometry y="190" width="340" height="40" as="geometry" />
        </mxCell>
        <mxCell id="ru2FF_7ZRZzsMQQVSqr4-62" value="" style="shape=partialRectangle;connectable=0;fillColor=none;top=0;left=0;bottom=0;right=0;editable=1;overflow=hidden;" vertex="1" parent="ru2FF_7ZRZzsMQQVSqr4-61">
          <mxGeometry width="60" height="40" as="geometry">
            <mxRectangle width="60" height="40" as="alternateBounds" />
          </mxGeometry>
        </mxCell>
        <mxCell id="ru2FF_7ZRZzsMQQVSqr4-63" value="youtube TEXT UNIQUE" style="shape=partialRectangle;connectable=0;fillColor=none;top=0;left=0;bottom=0;right=0;align=left;spacingLeft=6;overflow=hidden;fontSize=16;" vertex="1" parent="ru2FF_7ZRZzsMQQVSqr4-61">
          <mxGeometry x="60" width="280" height="40" as="geometry">
            <mxRectangle width="280" height="40" as="alternateBounds" />
          </mxGeometry>
        </mxCell>
        <mxCell id="ru2FF_7ZRZzsMQQVSqr4-64" value="" style="shape=tableRow;horizontal=0;startSize=0;swimlaneHead=0;swimlaneBody=0;fillColor=none;collapsible=0;dropTarget=0;points=[[0,0.5],[1,0.5]];portConstraint=eastwest;top=0;left=0;right=0;bottom=0;" vertex="1" parent="ru2FF_7ZRZzsMQQVSqr4-48">
          <mxGeometry y="230" width="340" height="50" as="geometry" />
        </mxCell>
        <mxCell id="ru2FF_7ZRZzsMQQVSqr4-65" value="" style="shape=partialRectangle;connectable=0;fillColor=none;top=0;left=0;bottom=0;right=0;editable=1;overflow=hidden;" vertex="1" parent="ru2FF_7ZRZzsMQQVSqr4-64">
          <mxGeometry width="60" height="50" as="geometry">
            <mxRectangle width="60" height="50" as="alternateBounds" />
          </mxGeometry>
        </mxCell>
        <mxCell id="ru2FF_7ZRZzsMQQVSqr4-66" value="linkedin TEXT UNIQUE" style="shape=partialRectangle;connectable=0;fillColor=none;top=0;left=0;bottom=0;right=0;align=left;spacingLeft=6;overflow=hidden;fontSize=16;" vertex="1" parent="ru2FF_7ZRZzsMQQVSqr4-64">
          <mxGeometry x="60" width="280" height="50" as="geometry">
            <mxRectangle width="280" height="50" as="alternateBounds" />
          </mxGeometry>
        </mxCell>
        <mxCell id="ru2FF_7ZRZzsMQQVSqr4-67" value="" style="shape=tableRow;horizontal=0;startSize=0;swimlaneHead=0;swimlaneBody=0;fillColor=none;collapsible=0;dropTarget=0;points=[[0,0.5],[1,0.5]];portConstraint=eastwest;top=0;left=0;right=0;bottom=0;" vertex="1" parent="ru2FF_7ZRZzsMQQVSqr4-48">
          <mxGeometry y="280" width="340" height="50" as="geometry" />
        </mxCell>
        <mxCell id="ru2FF_7ZRZzsMQQVSqr4-68" value="" style="shape=partialRectangle;connectable=0;fillColor=none;top=0;left=0;bottom=0;right=0;editable=1;overflow=hidden;" vertex="1" parent="ru2FF_7ZRZzsMQQVSqr4-67">
          <mxGeometry width="60" height="50" as="geometry">
            <mxRectangle width="60" height="50" as="alternateBounds" />
          </mxGeometry>
        </mxCell>
        <mxCell id="ru2FF_7ZRZzsMQQVSqr4-69" value="tiktok TEXT UNIQUE" style="shape=partialRectangle;connectable=0;fillColor=none;top=0;left=0;bottom=0;right=0;align=left;spacingLeft=6;overflow=hidden;fontSize=16;" vertex="1" parent="ru2FF_7ZRZzsMQQVSqr4-67">
          <mxGeometry x="60" width="280" height="50" as="geometry">
            <mxRectangle width="280" height="50" as="alternateBounds" />
          </mxGeometry>
        </mxCell>
        <mxCell id="ru2FF_7ZRZzsMQQVSqr4-70" value="" style="shape=tableRow;horizontal=0;startSize=0;swimlaneHead=0;swimlaneBody=0;fillColor=none;collapsible=0;dropTarget=0;points=[[0,0.5],[1,0.5]];portConstraint=eastwest;top=0;left=0;right=0;bottom=0;" vertex="1" parent="ru2FF_7ZRZzsMQQVSqr4-48">
          <mxGeometry y="330" width="340" height="30" as="geometry" />
        </mxCell>
        <mxCell id="ru2FF_7ZRZzsMQQVSqr4-71" value="" style="shape=partialRectangle;connectable=0;fillColor=none;top=0;left=0;bottom=0;right=0;editable=1;overflow=hidden;" vertex="1" parent="ru2FF_7ZRZzsMQQVSqr4-70">
          <mxGeometry width="60" height="30" as="geometry">
            <mxRectangle width="60" height="30" as="alternateBounds" />
          </mxGeometry>
        </mxCell>
        <mxCell id="ru2FF_7ZRZzsMQQVSqr4-72" value="reddit TEXT UNIQUE" style="shape=partialRectangle;connectable=0;fillColor=none;top=0;left=0;bottom=0;right=0;align=left;spacingLeft=6;overflow=hidden;fontSize=16;" vertex="1" parent="ru2FF_7ZRZzsMQQVSqr4-70">
          <mxGeometry x="60" width="280" height="30" as="geometry">
            <mxRectangle width="280" height="30" as="alternateBounds" />
          </mxGeometry>
        </mxCell>
        <mxCell id="ru2FF_7ZRZzsMQQVSqr4-73" value="" style="edgeStyle=entityRelationEdgeStyle;fontSize=12;html=1;endArrow=ERzeroToOne;endFill=1;rounded=0;entryX=0;entryY=0.5;entryDx=0;entryDy=0;exitX=1;exitY=0.5;exitDx=0;exitDy=0;" edge="1" parent="1" source="C-vyLk0tnHw3VtMMgP7b-24" target="ru2FF_7ZRZzsMQQVSqr4-49">
          <mxGeometry width="100" height="100" relative="1" as="geometry">
            <mxPoint x="-50" y="100" as="sourcePoint" />
            <mxPoint x="55" y="-320" as="targetPoint" />
          </mxGeometry>
        </mxCell>
        <mxCell id="ru2FF_7ZRZzsMQQVSqr4-74" value="users_credentials" style="shape=table;startSize=30;container=1;collapsible=1;childLayout=tableLayout;fixedRows=1;rowLines=0;fontStyle=1;align=center;resizeLast=1;html=1;fontSize=16;" vertex="1" parent="1">
          <mxGeometry x="70" y="450" width="400" height="260" as="geometry" />
        </mxCell>
        <mxCell id="ru2FF_7ZRZzsMQQVSqr4-75" value="" style="shape=tableRow;horizontal=0;startSize=0;swimlaneHead=0;swimlaneBody=0;fillColor=none;collapsible=0;dropTarget=0;points=[[0,0.5],[1,0.5]];portConstraint=eastwest;top=0;left=0;right=0;bottom=1;fontSize=16;" vertex="1" parent="ru2FF_7ZRZzsMQQVSqr4-74">
          <mxGeometry y="30" width="400" height="30" as="geometry" />
        </mxCell>
        <mxCell id="ru2FF_7ZRZzsMQQVSqr4-76" value="PK, FK" style="shape=partialRectangle;connectable=0;fillColor=none;top=0;left=0;bottom=0;right=0;fontStyle=1;overflow=hidden;whiteSpace=wrap;html=1;fontSize=16;" vertex="1" parent="ru2FF_7ZRZzsMQQVSqr4-75">
          <mxGeometry width="60" height="30" as="geometry">
            <mxRectangle width="60" height="30" as="alternateBounds" />
          </mxGeometry>
        </mxCell>
        <mxCell id="ru2FF_7ZRZzsMQQVSqr4-77" value="id INTEGER PRIMARY KEY" style="shape=partialRectangle;connectable=0;fillColor=none;top=0;left=0;bottom=0;right=0;align=left;spacingLeft=6;fontStyle=5;overflow=hidden;whiteSpace=wrap;html=1;fontSize=16;" vertex="1" parent="ru2FF_7ZRZzsMQQVSqr4-75">
          <mxGeometry x="60" width="340" height="30" as="geometry">
            <mxRectangle width="340" height="30" as="alternateBounds" />
          </mxGeometry>
        </mxCell>
        <mxCell id="ru2FF_7ZRZzsMQQVSqr4-78" value="" style="shape=tableRow;horizontal=0;startSize=0;swimlaneHead=0;swimlaneBody=0;fillColor=none;collapsible=0;dropTarget=0;points=[[0,0.5],[1,0.5]];portConstraint=eastwest;top=0;left=0;right=0;bottom=0;fontSize=16;" vertex="1" parent="ru2FF_7ZRZzsMQQVSqr4-74">
          <mxGeometry y="60" width="400" height="50" as="geometry" />
        </mxCell>
        <mxCell id="ru2FF_7ZRZzsMQQVSqr4-79" value="" style="shape=partialRectangle;connectable=0;fillColor=none;top=0;left=0;bottom=0;right=0;editable=1;overflow=hidden;whiteSpace=wrap;html=1;fontSize=16;" vertex="1" parent="ru2FF_7ZRZzsMQQVSqr4-78">
          <mxGeometry width="60" height="50" as="geometry">
            <mxRectangle width="60" height="50" as="alternateBounds" />
          </mxGeometry>
        </mxCell>
        <mxCell id="ru2FF_7ZRZzsMQQVSqr4-80" value="email VARCHAR(100) UNIQUE NOT NULL" style="shape=partialRectangle;connectable=0;fillColor=none;top=0;left=0;bottom=0;right=0;align=left;spacingLeft=6;overflow=hidden;whiteSpace=wrap;html=1;fontSize=16;" vertex="1" parent="ru2FF_7ZRZzsMQQVSqr4-78">
          <mxGeometry x="60" width="340" height="50" as="geometry">
            <mxRectangle width="340" height="50" as="alternateBounds" />
          </mxGeometry>
        </mxCell>
        <mxCell id="ru2FF_7ZRZzsMQQVSqr4-81" value="" style="shape=tableRow;horizontal=0;startSize=0;swimlaneHead=0;swimlaneBody=0;fillColor=none;collapsible=0;dropTarget=0;points=[[0,0.5],[1,0.5]];portConstraint=eastwest;top=0;left=0;right=0;bottom=0;fontSize=16;" vertex="1" parent="ru2FF_7ZRZzsMQQVSqr4-74">
          <mxGeometry y="110" width="400" height="50" as="geometry" />
        </mxCell>
        <mxCell id="ru2FF_7ZRZzsMQQVSqr4-82" value="" style="shape=partialRectangle;connectable=0;fillColor=none;top=0;left=0;bottom=0;right=0;editable=1;overflow=hidden;whiteSpace=wrap;html=1;fontSize=16;" vertex="1" parent="ru2FF_7ZRZzsMQQVSqr4-81">
          <mxGeometry width="60" height="50" as="geometry">
            <mxRectangle width="60" height="50" as="alternateBounds" />
          </mxGeometry>
        </mxCell>
        <mxCell id="ru2FF_7ZRZzsMQQVSqr4-83" value="password_hash TEXT NOT NULL" style="shape=partialRectangle;connectable=0;fillColor=none;top=0;left=0;bottom=0;right=0;align=left;spacingLeft=6;overflow=hidden;whiteSpace=wrap;html=1;fontSize=16;" vertex="1" parent="ru2FF_7ZRZzsMQQVSqr4-81">
          <mxGeometry x="60" width="340" height="50" as="geometry">
            <mxRectangle width="340" height="50" as="alternateBounds" />
          </mxGeometry>
        </mxCell>
        <mxCell id="ru2FF_7ZRZzsMQQVSqr4-84" value="" style="shape=tableRow;horizontal=0;startSize=0;swimlaneHead=0;swimlaneBody=0;fillColor=none;collapsible=0;dropTarget=0;points=[[0,0.5],[1,0.5]];portConstraint=eastwest;top=0;left=0;right=0;bottom=0;fontSize=16;" vertex="1" parent="ru2FF_7ZRZzsMQQVSqr4-74">
          <mxGeometry y="160" width="400" height="50" as="geometry" />
        </mxCell>
        <mxCell id="ru2FF_7ZRZzsMQQVSqr4-85" value="" style="shape=partialRectangle;connectable=0;fillColor=none;top=0;left=0;bottom=0;right=0;editable=1;overflow=hidden;whiteSpace=wrap;html=1;fontSize=16;" vertex="1" parent="ru2FF_7ZRZzsMQQVSqr4-84">
          <mxGeometry width="60" height="50" as="geometry">
            <mxRectangle width="60" height="50" as="alternateBounds" />
          </mxGeometry>
        </mxCell>
        <mxCell id="ru2FF_7ZRZzsMQQVSqr4-86" value="first_name VARCHAR(60) NOT NULL" style="shape=partialRectangle;connectable=0;fillColor=none;top=0;left=0;bottom=0;right=0;align=left;spacingLeft=6;overflow=hidden;whiteSpace=wrap;html=1;fontSize=16;" vertex="1" parent="ru2FF_7ZRZzsMQQVSqr4-84">
          <mxGeometry x="60" width="340" height="50" as="geometry">
            <mxRectangle width="340" height="50" as="alternateBounds" />
          </mxGeometry>
        </mxCell>
        <mxCell id="ru2FF_7ZRZzsMQQVSqr4-88" value="" style="shape=tableRow;horizontal=0;startSize=0;swimlaneHead=0;swimlaneBody=0;fillColor=none;collapsible=0;dropTarget=0;points=[[0,0.5],[1,0.5]];portConstraint=eastwest;top=0;left=0;right=0;bottom=0;" vertex="1" parent="ru2FF_7ZRZzsMQQVSqr4-74">
          <mxGeometry y="210" width="400" height="50" as="geometry" />
        </mxCell>
        <mxCell id="ru2FF_7ZRZzsMQQVSqr4-89" value="" style="shape=partialRectangle;connectable=0;fillColor=none;top=0;left=0;bottom=0;right=0;editable=1;overflow=hidden;" vertex="1" parent="ru2FF_7ZRZzsMQQVSqr4-88">
          <mxGeometry width="60" height="50" as="geometry">
            <mxRectangle width="60" height="50" as="alternateBounds" />
          </mxGeometry>
        </mxCell>
        <mxCell id="ru2FF_7ZRZzsMQQVSqr4-90" value="last_name VARCHAR(60) NOT NULL" style="shape=partialRectangle;connectable=0;fillColor=none;top=0;left=0;bottom=0;right=0;align=left;spacingLeft=6;overflow=hidden;fontSize=16;" vertex="1" parent="ru2FF_7ZRZzsMQQVSqr4-88">
          <mxGeometry x="60" width="340" height="50" as="geometry">
            <mxRectangle width="340" height="50" as="alternateBounds" />
          </mxGeometry>
        </mxCell>
        <mxCell id="ru2FF_7ZRZzsMQQVSqr4-91" value="" style="edgeStyle=entityRelationEdgeStyle;fontSize=12;html=1;endArrow=ERzeroToOne;endFill=1;rounded=0;exitX=1;exitY=0.5;exitDx=0;exitDy=0;entryX=0;entryY=0.5;entryDx=0;entryDy=0;" edge="1" parent="1" source="C-vyLk0tnHw3VtMMgP7b-24" target="ru2FF_7ZRZzsMQQVSqr4-75">
          <mxGeometry width="100" height="100" relative="1" as="geometry">
            <mxPoint x="60" y="500" as="sourcePoint" />
            <mxPoint x="160" y="400" as="targetPoint" />
          </mxGeometry>
        </mxCell>
      </root>
    </mxGraphModel>
  </diagram>
</mxfile>
